<svg xmlns="http://www.w3.org/2000/svg" xmlns:xlink="http://www.w3.org/1999/xlink" width="1080" zoomAndPan="magnify" viewBox="0 0 810 809.999993" height="1080" preserveAspectRatio="xMidYMid meet" version="1.2"><defs><filter x="0%" y="0%" width="100%" filterUnits="objectBoundingBox" id="f44bc7ca68" height="100%"><feColorMatrix values="0 0 0 0 1 0 0 0 0 1 0 0 0 0 1 0 0 0 1 0" type="matrix" in="SourceGraphic"/></filter><clipPath id="c8b138ffe6"><path d="M 0.359375 0.914062 L 243.359375 0.914062 L 243.359375 623 L 0.359375 623 Z M 0.359375 0.914062 "/></clipPath><clipPath id="f4e315267c"><path d="M 15.359375 0.914062 L 228.359375 0.914062 C 232.335938 0.914062 236.152344 2.492188 238.964844 5.304688 C 241.777344 8.117188 243.359375 11.933594 243.359375 15.914062 L 243.359375 608 C 243.359375 611.976562 241.777344 615.792969 238.964844 618.605469 C 236.152344 621.417969 232.335938 623 228.359375 623 L 15.359375 623 C 11.378906 623 7.5625 621.417969 4.75 618.605469 C 1.9375 615.792969 0.359375 611.976562 0.359375 608 L 0.359375 15.914062 C 0.359375 11.933594 1.9375 8.117188 4.75 5.304688 C 7.5625 2.492188 11.378906 0.914062 15.359375 0.914062 Z M 15.359375 0.914062 "/></clipPath><clipPath id="721ef9e319"><rect x="0" width="244" y="0" height="624"/></clipPath><clipPath id="b72fa7214a"><path d="M 0.640625 0.871094 L 243.640625 0.871094 L 243.640625 427 L 0.640625 427 Z M 0.640625 0.871094 "/></clipPath><clipPath id="4b605791be"><path d="M 15.640625 0.871094 L 228.640625 0.871094 C 232.621094 0.871094 236.4375 2.453125 239.25 5.265625 C 242.0625 8.078125 243.640625 11.894531 243.640625 15.871094 L 243.640625 412 C 243.640625 415.976562 242.0625 419.792969 239.25 422.605469 C 236.4375 425.417969 232.621094 427 228.640625 427 L 15.640625 427 C 11.664062 427 7.847656 425.417969 5.035156 422.605469 C 2.222656 419.792969 0.640625 415.976562 0.640625 412 L 0.640625 15.871094 C 0.640625 11.894531 2.222656 8.078125 5.035156 5.265625 C 7.847656 2.453125 11.664062 0.871094 15.640625 0.871094 Z M 15.640625 0.871094 "/></clipPath><clipPath id="fc0adc6329"><rect x="0" width="244" y="0" height="428"/></clipPath><clipPath id="0db1a21734"><path d="M 0.640625 0.09375 L 243.640625 0.09375 L 243.640625 513 L 0.640625 513 Z M 0.640625 0.09375 "/></clipPath><clipPath id="9636ed4e93"><path d="M 15.640625 0.09375 L 228.640625 0.09375 C 232.621094 0.09375 236.4375 1.671875 239.25 4.488281 C 242.0625 7.300781 243.640625 11.113281 243.640625 15.09375 L 243.640625 498 C 243.640625 501.976562 242.0625 505.792969 239.25 508.605469 C 236.4375 511.417969 232.621094 513 228.640625 513 L 15.640625 513 C 11.664062 513 7.847656 511.417969 5.035156 508.605469 C 2.222656 505.792969 0.640625 501.976562 0.640625 498 L 0.640625 15.09375 C 0.640625 11.113281 2.222656 7.300781 5.035156 4.488281 C 7.847656 1.671875 11.664062 0.09375 15.640625 0.09375 Z M 15.640625 0.09375 "/></clipPath><clipPath id="df4130027b"><rect x="0" width="244" y="0" height="514"/></clipPath><clipPath id="b8648705eb"><path d="M 0.308594 0.871094 L 169.238281 0.871094 L 169.238281 111.433594 L 0.308594 111.433594 Z M 0.308594 0.871094 "/></clipPath><clipPath id="3252d1e1b8"><path d="M 7.808594 0.871094 L 161.675781 0.871094 C 163.664062 0.871094 165.570312 1.664062 166.976562 3.070312 C 168.386719 4.476562 169.175781 6.382812 169.175781 8.371094 L 169.175781 103.933594 C 169.175781 105.921875 168.386719 107.828125 166.976562 109.234375 C 165.570312 110.640625 163.664062 111.433594 161.675781 111.433594 L 7.808594 111.433594 C 5.820312 111.433594 3.914062 110.640625 2.507812 109.234375 C 1.101562 107.828125 0.308594 105.921875 0.308594 103.933594 L 0.308594 8.371094 C 0.308594 6.382812 1.101562 4.476562 2.507812 3.070312 C 3.914062 1.664062 5.820312 0.871094 7.808594 0.871094 Z M 7.808594 0.871094 "/></clipPath><clipPath id="671b944663"><rect x="0" width="170" y="0" height="112"/></clipPath><clipPath id="a289c7e681"><path d="M 0.308594 0.828125 L 169.175781 0.828125 L 169.175781 111.386719 L 0.308594 111.386719 Z M 0.308594 0.828125 "/></clipPath><clipPath id="46d59cb09d"><rect x="0" width="170" y="0" height="112"/></clipPath><clipPath id="a531a88ed7"><path d="M 0.308594 0.886719 L 169.351562 0.886719 L 169.351562 71.136719 L 0.308594 71.136719 Z M 0.308594 0.886719 "/></clipPath><clipPath id="690e1837cb"><path d="M 7.808594 0.886719 L 161.675781 0.886719 C 163.664062 0.886719 165.570312 1.675781 166.976562 3.085938 C 168.386719 4.492188 169.175781 6.398438 169.175781 8.386719 L 169.175781 63.636719 C 169.175781 65.628906 168.386719 67.535156 166.976562 68.941406 C 165.570312 70.347656 163.664062 71.136719 161.675781 71.136719 L 7.808594 71.136719 C 5.820312 71.136719 3.914062 70.347656 2.507812 68.941406 C 1.101562 67.535156 0.308594 65.628906 0.308594 63.636719 L 0.308594 8.386719 C 0.308594 6.398438 1.101562 4.492188 2.507812 3.085938 C 3.914062 1.675781 5.820312 0.886719 7.808594 0.886719 Z M 7.808594 0.886719 "/></clipPath><clipPath id="08af714b44"><rect x="0" width="170" y="0" height="72"/></clipPath><clipPath id="44d325ce59"><path d="M 0.746094 0.933594 L 169.605469 0.933594 L 169.605469 111.492188 L 0.746094 111.492188 Z M 0.746094 0.933594 "/></clipPath><clipPath id="a3570a8697"><path d="M 8.246094 0.933594 L 161.753906 0.933594 C 163.746094 0.933594 165.652344 1.722656 167.058594 3.128906 C 168.464844 4.535156 169.253906 6.441406 169.253906 8.433594 L 169.253906 103.992188 C 169.253906 105.980469 168.464844 107.886719 167.058594 109.292969 C 165.652344 110.703125 163.746094 111.492188 161.753906 111.492188 L 8.246094 111.492188 C 6.253906 111.492188 4.347656 110.703125 2.941406 109.292969 C 1.535156 107.886719 0.746094 105.980469 0.746094 103.992188 L 0.746094 8.433594 C 0.746094 6.441406 1.535156 4.535156 2.941406 3.128906 C 4.347656 1.722656 6.253906 0.933594 8.246094 0.933594 Z M 8.246094 0.933594 "/></clipPath><clipPath id="5bb776524c"><rect x="0" width="170" y="0" height="112"/></clipPath><clipPath id="3b1334f912"><path d="M 0.746094 0.386719 L 169.269531 0.386719 L 169.269531 102.136719 L 0.746094 102.136719 Z M 0.746094 0.386719 "/></clipPath><clipPath id="c013703612"><path d="M 8.246094 0.386719 L 161.753906 0.386719 C 163.746094 0.386719 165.652344 1.175781 167.058594 2.585938 C 168.464844 3.992188 169.253906 5.898438 169.253906 7.886719 L 169.253906 94.636719 C 169.253906 96.628906 168.464844 98.535156 167.058594 99.941406 C 165.652344 101.347656 163.746094 102.136719 161.753906 102.136719 L 8.246094 102.136719 C 6.253906 102.136719 4.347656 101.347656 2.941406 99.941406 C 1.535156 98.535156 0.746094 96.628906 0.746094 94.636719 L 0.746094 7.886719 C 0.746094 5.898438 1.535156 3.992188 2.941406 2.585938 C 4.347656 1.175781 6.253906 0.386719 8.246094 0.386719 Z M 8.246094 0.386719 "/></clipPath><clipPath id="8a14fd6962"><rect x="0" width="170" y="0" height="103"/></clipPath><clipPath id="9ea8111b2a"><path d="M 0.300781 0.59375 L 168.730469 0.59375 L 168.730469 111.152344 L 0.300781 111.152344 Z M 0.300781 0.59375 "/></clipPath><clipPath id="25a61d3735"><path d="M 7.800781 0.59375 L 160.960938 0.59375 C 162.949219 0.59375 164.855469 1.382812 166.261719 2.789062 C 167.667969 4.195312 168.460938 6.105469 168.460938 8.09375 L 168.460938 103.652344 C 168.460938 105.640625 167.667969 107.550781 166.261719 108.957031 C 164.855469 110.363281 162.949219 111.152344 160.960938 111.152344 L 7.800781 111.152344 C 5.8125 111.152344 3.90625 110.363281 2.5 108.957031 C 1.089844 107.550781 0.300781 105.640625 0.300781 103.652344 L 0.300781 8.09375 C 0.300781 6.105469 1.089844 4.195312 2.5 2.789062 C 3.90625 1.382812 5.8125 0.59375 7.800781 0.59375 Z M 7.800781 0.59375 "/></clipPath><clipPath id="5bd633b8a2"><rect x="0" width="169" y="0" height="112"/></clipPath><clipPath id="81c1e87818"><path d="M 0.0625 0.265625 L 168.492188 0.265625 L 168.492188 110.828125 L 0.0625 110.828125 Z M 0.0625 0.265625 "/></clipPath><clipPath id="d03dccab6c"><path d="M 7.5625 0.265625 L 160.722656 0.265625 C 162.710938 0.265625 164.617188 1.058594 166.023438 2.464844 C 167.429688 3.871094 168.222656 5.777344 168.222656 7.765625 L 168.222656 103.328125 C 168.222656 105.316406 167.429688 107.222656 166.023438 108.628906 C 164.617188 110.035156 162.710938 110.828125 160.722656 110.828125 L 7.5625 110.828125 C 5.574219 110.828125 3.667969 110.035156 2.261719 108.628906 C 0.851562 107.222656 0.0625 105.316406 0.0625 103.328125 L 0.0625 7.765625 C 0.0625 5.777344 0.851562 3.871094 2.261719 2.464844 C 3.667969 1.058594 5.574219 0.265625 7.5625 0.265625 Z M 7.5625 0.265625 "/></clipPath><clipPath id="bb21c7f4dd"><rect x="0" width="169" y="0" height="111"/></clipPath><clipPath id="e2f215b052"><path d="M 0.300781 0.886719 L 168.730469 0.886719 L 168.730469 111.445312 L 0.300781 111.445312 Z M 0.300781 0.886719 "/></clipPath><clipPath id="5e0b733d68"><path d="M 7.800781 0.886719 L 160.960938 0.886719 C 162.949219 0.886719 164.855469 1.675781 166.261719 3.085938 C 167.667969 4.492188 168.460938 6.398438 168.460938 8.386719 L 168.460938 103.945312 C 168.460938 105.9375 167.667969 107.84375 166.261719 109.25 C 164.855469 110.65625 162.949219 111.445312 160.960938 111.445312 L 7.800781 111.445312 C 5.8125 111.445312 3.90625 110.65625 2.5 109.25 C 1.089844 107.84375 0.300781 105.9375 0.300781 103.945312 L 0.300781 8.386719 C 0.300781 6.398438 1.089844 4.492188 2.5 3.085938 C 3.90625 1.675781 5.8125 0.886719 7.800781 0.886719 Z M 7.800781 0.886719 "/></clipPath><clipPath id="fce5b0d229"><rect x="0" width="169" y="0" height="112"/></clipPath><clipPath id="30d47f7910"><path d="M 0.539062 0.8125 L 169.480469 0.8125 L 169.480469 111.371094 L 0.539062 111.371094 Z M 0.539062 0.8125 "/></clipPath><clipPath id="0ad4e7ae3f"><path d="M 8.039062 0.8125 L 161.90625 0.8125 C 163.894531 0.8125 165.800781 1.605469 167.207031 3.011719 C 168.613281 4.417969 169.40625 6.324219 169.40625 8.3125 L 169.40625 103.871094 C 169.40625 105.863281 168.613281 107.769531 167.207031 109.175781 C 165.800781 110.582031 163.894531 111.371094 161.90625 111.371094 L 8.039062 111.371094 C 6.050781 111.371094 4.144531 110.582031 2.738281 109.175781 C 1.332031 107.769531 0.539062 105.863281 0.539062 103.871094 L 0.539062 8.3125 C 0.539062 6.324219 1.332031 4.417969 2.738281 3.011719 C 4.144531 1.605469 6.050781 0.8125 8.039062 0.8125 Z M 8.039062 0.8125 "/></clipPath><clipPath id="2443363539"><rect x="0" width="170" y="0" height="112"/></clipPath></defs><g id="3e0db99a88"><g mask="url(#e0d343d576)" transform="matrix(1,0,0,1,16,106)"><g clip-path="url(#721ef9e319)"><g clip-rule="nonzero" clip-path="url(#c8b138ffe6)"><g clip-rule="nonzero" clip-path="url(#f4e315267c)"><path style=" stroke:none;fill-rule:nonzero;fill:#ffffff;fill-opacity:1;" d="M 0.359375 0.914062 L 243.359375 0.914062 L 243.359375 622.652344 L 0.359375 622.652344 Z M 0.359375 0.914062 "/></g></g></g><mask id="e0d343d576"><g filter="url(#f44bc7ca68)"><rect x="0" width="810" y="0" height="809.999993" style="fill:#000000;fill-opacity:0.25;stroke:none;"/></g></mask></g><g mask="url(#ca10edc8ea)" transform="matrix(1,0,0,1,283,302)"><g clip-path="url(#fc0adc6329)"><g clip-rule="nonzero" clip-path="url(#b72fa7214a)"><g clip-rule="nonzero" clip-path="url(#4b605791be)"><path style=" stroke:none;fill-rule:nonzero;fill:#ffffff;fill-opacity:1;" d="M 0.640625 0.871094 L 243.640625 0.871094 L 243.640625 427.070312 L 0.640625 427.070312 Z M 0.640625 0.871094 "/></g></g></g><mask id="ca10edc8ea"><g filter="url(#f44bc7ca68)"><rect x="0" width="810" y="0" height="809.999993" style="fill:#000000;fill-opacity:0.25;stroke:none;"/></g></mask></g><g mask="url(#36e6dcaada)" transform="matrix(1,0,0,1,550,216)"><g clip-path="url(#df4130027b)"><g clip-rule="nonzero" clip-path="url(#0db1a21734)"><g clip-rule="nonzero" clip-path="url(#9636ed4e93)"><path style=" stroke:none;fill-rule:nonzero;fill:#ffffff;fill-opacity:1;" d="M 0.640625 0.09375 L 243.640625 0.09375 L 243.640625 512.671875 L 0.640625 512.671875 Z M 0.640625 0.09375 "/></g></g></g><mask id="36e6dcaada"><g filter="url(#f44bc7ca68)"><rect x="0" width="810" y="0" height="809.999993" style="fill:#000000;fill-opacity:0.25;stroke:none;"/></g></mask></g><g mask="url(#fb8b7f1424)" transform="matrix(1,0,0,1,53,302)"><g clip-path="url(#671b944663)"><g clip-rule="nonzero" clip-path="url(#b8648705eb)"><g clip-rule="nonzero" clip-path="url(#3252d1e1b8)"><path style=" stroke:none;fill-rule:nonzero;fill:#ffffff;fill-opacity:1;" d="M 0.308594 0.871094 L 169.171875 0.871094 L 169.171875 111.433594 L 0.308594 111.433594 Z M 0.308594 0.871094 "/></g></g></g><mask id="fb8b7f1424"><g filter="url(#f44bc7ca68)"><rect x="0" width="810" y="0" height="809.999993" style="fill:#000000;fill-opacity:0.5;stroke:none;"/></g></mask></g><g mask="url(#fbdd3eff10)" transform="matrix(1,0,0,1,53,444)"><g clip-path="url(#46d59cb09d)"><g clip-rule="nonzero" clip-path="url(#a289c7e681)"><path style=" stroke:none;fill-rule:nonzero;fill:#ffffff;fill-opacity:1;" d="M 0.308594 0.828125 L 169.171875 0.828125 L 169.171875 111.386719 L 0.308594 111.386719 Z M 0.308594 0.828125 "/></g></g><mask id="fbdd3eff10"><g filter="url(#f44bc7ca68)"><rect x="0" width="810" y="0" height="809.999993" style="fill:#000000;fill-opacity:0.5;stroke:none;"/></g></mask></g><g mask="url(#601470be32)" transform="matrix(1,0,0,1,53,586)"><g clip-path="url(#08af714b44)"><g clip-rule="nonzero" clip-path="url(#a531a88ed7)"><g clip-rule="nonzero" clip-path="url(#690e1837cb)"><path style=" stroke:none;fill-rule:nonzero;fill:#ffffff;fill-opacity:1;" d="M 0.308594 0.886719 L 169.078125 0.886719 L 169.078125 71.136719 L 0.308594 71.136719 Z M 0.308594 0.886719 "/></g></g></g><mask id="601470be32"><g filter="url(#f44bc7ca68)"><rect x="0" width="810" y="0" height="809.999993" style="fill:#000000;fill-opacity:0.5;stroke:none;"/></g></mask></g><g mask="url(#e90af9f74c)" transform="matrix(1,0,0,1,320,381)"><g clip-path="url(#5bb776524c)"><g clip-rule="nonzero" clip-path="url(#44d325ce59)"><g clip-rule="nonzero" clip-path="url(#a3570a8697)"><path style=" stroke:none;fill-rule:nonzero;fill:#ffffff;fill-opacity:1;" d="M 0.746094 0.933594 L 169.175781 0.933594 L 169.175781 111.492188 L 0.746094 111.492188 Z M 0.746094 0.933594 "/></g></g></g><mask id="e90af9f74c"><g filter="url(#f44bc7ca68)"><rect x="0" width="810" y="0" height="809.999993" style="fill:#000000;fill-opacity:0.5;stroke:none;"/></g></mask></g><g mask="url(#476352042a)" transform="matrix(1,0,0,1,320,555)"><g clip-path="url(#8a14fd6962)"><g clip-rule="nonzero" clip-path="url(#3b1334f912)"><g clip-rule="nonzero" clip-path="url(#c013703612)"><path style=" stroke:none;fill-rule:nonzero;fill:#ffffff;fill-opacity:1;" d="M 0.746094 0.386719 L 169.269531 0.386719 L 169.269531 102.136719 L 0.746094 102.136719 Z M 0.746094 0.386719 "/></g></g></g><mask id="476352042a"><g filter="url(#f44bc7ca68)"><rect x="0" width="810" y="0" height="809.999993" style="fill:#000000;fill-opacity:0.5;stroke:none;"/></g></mask></g><g mask="url(#d8c6dd154a)" transform="matrix(1,0,0,1,588,247)"><g clip-path="url(#5bd633b8a2)"><g clip-rule="nonzero" clip-path="url(#9ea8111b2a)"><g clip-rule="nonzero" clip-path="url(#25a61d3735)"><path style=" stroke:none;fill-rule:nonzero;fill:#ffffff;fill-opacity:1;" d="M 0.300781 0.59375 L 168.300781 0.59375 L 168.300781 111.152344 L 0.300781 111.152344 Z M 0.300781 0.59375 "/></g></g></g><mask id="d8c6dd154a"><g filter="url(#f44bc7ca68)"><rect x="0" width="810" y="0" height="809.999993" style="fill:#000000;fill-opacity:0.5;stroke:none;"/></g></mask></g><g mask="url(#2a7d6f2960)" transform="matrix(1,0,0,1,588,417)"><g clip-path="url(#bb21c7f4dd)"><g clip-rule="nonzero" clip-path="url(#81c1e87818)"><g clip-rule="nonzero" clip-path="url(#d03dccab6c)"><path style=" stroke:none;fill-rule:nonzero;fill:#ffffff;fill-opacity:1;" d="M 0.0625 0.265625 L 168.0625 0.265625 L 168.0625 110.828125 L 0.0625 110.828125 Z M 0.0625 0.265625 "/></g></g></g><mask id="2a7d6f2960"><g filter="url(#f44bc7ca68)"><rect x="0" width="810" y="0" height="809.999993" style="fill:#000000;fill-opacity:0.5;stroke:none;"/></g></mask></g><g mask="url(#df80cac3a5)" transform="matrix(1,0,0,1,588,586)"><g clip-path="url(#fce5b0d229)"><g clip-rule="nonzero" clip-path="url(#e2f215b052)"><g clip-rule="nonzero" clip-path="url(#5e0b733d68)"><path style=" stroke:none;fill-rule:nonzero;fill:#ffffff;fill-opacity:1;" d="M 0.300781 0.886719 L 168.300781 0.886719 L 168.300781 111.445312 L 0.300781 111.445312 Z M 0.300781 0.886719 "/></g></g></g><mask id="df80cac3a5"><g filter="url(#f44bc7ca68)"><rect x="0" width="810" y="0" height="809.999993" style="fill:#000000;fill-opacity:0.5;stroke:none;"/></g></mask></g><g mask="url(#d794e00f28)" transform="matrix(1,0,0,1,53,160)"><g clip-path="url(#2443363539)"><g clip-rule="nonzero" clip-path="url(#30d47f7910)"><g clip-rule="nonzero" clip-path="url(#0ad4e7ae3f)"><path style=" stroke:none;fill-rule:nonzero;fill:#ffffff;fill-opacity:1;" d="M 0.539062 0.8125 L 169.402344 0.8125 L 169.402344 111.371094 L 0.539062 111.371094 Z M 0.539062 0.8125 "/></g></g></g><mask id="d794e00f28"><g filter="url(#f44bc7ca68)"><rect x="0" width="810" y="0" height="809.999993" style="fill:#000000;fill-opacity:0.5;stroke:none;"/></g></mask></g></g></svg>